<mxfile host="app.diagrams.net" modified="2024-06-07T19:01:21.909Z" agent="Mozilla/5.0 (Macintosh; Intel Mac OS X 10_15_7) AppleWebKit/537.36 (KHTML, like Gecko) Chrome/125.0.0.0 Safari/537.36" etag="VY0xo6u325u3i55iOflS" version="24.4.14" type="github">
  <diagram name="Seite-1" id="Og4ClNEy-E3zu0bA_nxo">
    <mxGraphModel dx="1481" dy="682" grid="1" gridSize="10" guides="1" tooltips="1" connect="1" arrows="1" fold="1" page="1" pageScale="1" pageWidth="827" pageHeight="1169" math="0" shadow="0">
      <root>
        <mxCell id="0" />
        <mxCell id="1" parent="0" />
        <mxCell id="W81J2JQ0MfVwSuoms129-17" style="rounded=0;orthogonalLoop=1;jettySize=auto;html=1;exitX=0;exitY=0;exitDx=75;exitDy=0;exitPerimeter=0;entryX=0;entryY=0;entryDx=135;entryDy=190;entryPerimeter=0;endArrow=none;endFill=0;" edge="1" parent="1" target="W81J2JQ0MfVwSuoms129-16">
          <mxGeometry relative="1" as="geometry">
            <mxPoint x="300" y="305" as="sourcePoint" />
          </mxGeometry>
        </mxCell>
        <mxCell id="W81J2JQ0MfVwSuoms129-21" value="&amp;lt;&amp;lt;protocol&amp;gt;&amp;gt;&lt;br&gt;ssh" style="edgeLabel;html=1;align=center;verticalAlign=middle;resizable=0;points=[];" vertex="1" connectable="0" parent="W81J2JQ0MfVwSuoms129-17">
          <mxGeometry x="0.0596" y="4" relative="1" as="geometry">
            <mxPoint x="-37" y="42" as="offset" />
          </mxGeometry>
        </mxCell>
        <mxCell id="W81J2JQ0MfVwSuoms129-18" value="&amp;lt;&amp;lt;protocol&amp;gt;&amp;gt;&lt;br&gt;ssh" style="rounded=0;orthogonalLoop=1;jettySize=auto;html=1;exitX=0;exitY=0;exitDx=75;exitDy=0;exitPerimeter=0;entryX=0;entryY=0;entryDx=135;entryDy=190;entryPerimeter=0;endArrow=none;endFill=0;" edge="1" parent="1" target="W81J2JQ0MfVwSuoms129-37">
          <mxGeometry x="-0.0061" y="-25" relative="1" as="geometry">
            <mxPoint x="300" y="305" as="sourcePoint" />
            <mxPoint x="480" y="300" as="targetPoint" />
            <mxPoint as="offset" />
          </mxGeometry>
        </mxCell>
        <mxCell id="W81J2JQ0MfVwSuoms129-19" style="rounded=0;orthogonalLoop=1;jettySize=auto;html=1;exitX=0;exitY=0;exitDx=75;exitDy=0;exitPerimeter=0;entryX=0;entryY=0;entryDx=135;entryDy=190;entryPerimeter=0;endArrow=none;endFill=0;" edge="1" parent="1" target="W81J2JQ0MfVwSuoms129-47">
          <mxGeometry relative="1" as="geometry">
            <mxPoint x="300" y="305" as="sourcePoint" />
            <mxPoint x="480" y="120" as="targetPoint" />
          </mxGeometry>
        </mxCell>
        <mxCell id="W81J2JQ0MfVwSuoms129-20" value="&amp;lt;&amp;lt;protocol&amp;gt;&amp;gt;&lt;br&gt;ssh" style="edgeLabel;html=1;align=center;verticalAlign=middle;resizable=0;points=[];" vertex="1" connectable="0" parent="W81J2JQ0MfVwSuoms129-19">
          <mxGeometry x="0.1343" relative="1" as="geometry">
            <mxPoint x="-27" y="-45" as="offset" />
          </mxGeometry>
        </mxCell>
        <mxCell id="W81J2JQ0MfVwSuoms129-35" value="" style="group" vertex="1" connectable="0" parent="1">
          <mxGeometry x="400" y="420" width="190" height="260" as="geometry" />
        </mxCell>
        <mxCell id="W81J2JQ0MfVwSuoms129-16" value="&amp;lt;&amp;lt;device&amp;gt;&amp;gt; &lt;b&gt;artpc19 (node)&lt;/b&gt;" style="verticalAlign=top;align=center;shape=cube;size=10;direction=south;html=1;boundedLbl=1;spacingLeft=5;whiteSpace=wrap;" vertex="1" parent="W81J2JQ0MfVwSuoms129-35">
          <mxGeometry width="190" height="260" as="geometry" />
        </mxCell>
        <mxCell id="W81J2JQ0MfVwSuoms129-28" value="«component»&lt;br&gt;&lt;b&gt;System Configuration&lt;/b&gt;" style="html=1;dropTarget=0;whiteSpace=wrap;" vertex="1" parent="W81J2JQ0MfVwSuoms129-35">
          <mxGeometry x="10" y="185" width="160" height="65" as="geometry" />
        </mxCell>
        <mxCell id="W81J2JQ0MfVwSuoms129-29" value="" style="shape=module;jettyWidth=8;jettyHeight=4;" vertex="1" parent="W81J2JQ0MfVwSuoms129-28">
          <mxGeometry x="1" width="20" height="20" relative="1" as="geometry">
            <mxPoint x="-27" y="7" as="offset" />
          </mxGeometry>
        </mxCell>
        <mxCell id="W81J2JQ0MfVwSuoms129-30" value="«component»&lt;br&gt;&lt;b&gt;Kubernetes Configuration&lt;/b&gt;" style="html=1;dropTarget=0;whiteSpace=wrap;" vertex="1" parent="W81J2JQ0MfVwSuoms129-35">
          <mxGeometry x="10" y="110" width="160" height="65" as="geometry" />
        </mxCell>
        <mxCell id="W81J2JQ0MfVwSuoms129-31" value="" style="shape=module;jettyWidth=8;jettyHeight=4;" vertex="1" parent="W81J2JQ0MfVwSuoms129-30">
          <mxGeometry x="1" width="20" height="20" relative="1" as="geometry">
            <mxPoint x="-27" y="7" as="offset" />
          </mxGeometry>
        </mxCell>
        <mxCell id="W81J2JQ0MfVwSuoms129-32" value="" style="group" vertex="1" connectable="0" parent="W81J2JQ0MfVwSuoms129-35">
          <mxGeometry x="10" y="40" width="160" height="60" as="geometry" />
        </mxCell>
        <mxCell id="W81J2JQ0MfVwSuoms129-33" value="«artefact»&lt;br&gt;&lt;b&gt;Kubernetes&lt;/b&gt;" style="html=1;dropTarget=0;whiteSpace=wrap;" vertex="1" parent="W81J2JQ0MfVwSuoms129-32">
          <mxGeometry width="160" height="60" as="geometry" />
        </mxCell>
        <mxCell id="W81J2JQ0MfVwSuoms129-34" value="" style="shape=note2;boundedLbl=1;whiteSpace=wrap;html=1;size=6;verticalAlign=top;align=left;spacingLeft=5;" vertex="1" parent="W81J2JQ0MfVwSuoms129-32">
          <mxGeometry x="130" y="7.5" width="17.69" height="22.5" as="geometry" />
        </mxCell>
        <mxCell id="W81J2JQ0MfVwSuoms129-36" value="" style="group" vertex="1" connectable="0" parent="1">
          <mxGeometry x="610" y="220" width="190" height="260" as="geometry" />
        </mxCell>
        <mxCell id="W81J2JQ0MfVwSuoms129-37" value="&amp;lt;&amp;lt;device&amp;gt;&amp;gt; &lt;b&gt;artpc18 (node)&lt;/b&gt;" style="verticalAlign=top;align=center;shape=cube;size=10;direction=south;html=1;boundedLbl=1;spacingLeft=5;whiteSpace=wrap;" vertex="1" parent="W81J2JQ0MfVwSuoms129-36">
          <mxGeometry width="190" height="260" as="geometry" />
        </mxCell>
        <mxCell id="W81J2JQ0MfVwSuoms129-38" value="«component»&lt;br&gt;&lt;b&gt;System Configuration&lt;/b&gt;" style="html=1;dropTarget=0;whiteSpace=wrap;" vertex="1" parent="W81J2JQ0MfVwSuoms129-36">
          <mxGeometry x="10" y="185" width="160" height="65" as="geometry" />
        </mxCell>
        <mxCell id="W81J2JQ0MfVwSuoms129-39" value="" style="shape=module;jettyWidth=8;jettyHeight=4;" vertex="1" parent="W81J2JQ0MfVwSuoms129-38">
          <mxGeometry x="1" width="20" height="20" relative="1" as="geometry">
            <mxPoint x="-27" y="7" as="offset" />
          </mxGeometry>
        </mxCell>
        <mxCell id="W81J2JQ0MfVwSuoms129-40" value="«component»&lt;br&gt;&lt;b&gt;Kubernetes Configuration&lt;/b&gt;" style="html=1;dropTarget=0;whiteSpace=wrap;" vertex="1" parent="W81J2JQ0MfVwSuoms129-36">
          <mxGeometry x="10" y="110" width="160" height="65" as="geometry" />
        </mxCell>
        <mxCell id="W81J2JQ0MfVwSuoms129-41" value="" style="shape=module;jettyWidth=8;jettyHeight=4;" vertex="1" parent="W81J2JQ0MfVwSuoms129-40">
          <mxGeometry x="1" width="20" height="20" relative="1" as="geometry">
            <mxPoint x="-27" y="7" as="offset" />
          </mxGeometry>
        </mxCell>
        <mxCell id="W81J2JQ0MfVwSuoms129-42" value="" style="group" vertex="1" connectable="0" parent="W81J2JQ0MfVwSuoms129-36">
          <mxGeometry x="10" y="40" width="160" height="60" as="geometry" />
        </mxCell>
        <mxCell id="W81J2JQ0MfVwSuoms129-43" value="«artefact»&lt;br&gt;&lt;b&gt;Kubernetes&lt;/b&gt;" style="html=1;dropTarget=0;whiteSpace=wrap;" vertex="1" parent="W81J2JQ0MfVwSuoms129-42">
          <mxGeometry width="160" height="60" as="geometry" />
        </mxCell>
        <mxCell id="W81J2JQ0MfVwSuoms129-44" value="" style="shape=note2;boundedLbl=1;whiteSpace=wrap;html=1;size=6;verticalAlign=top;align=left;spacingLeft=5;" vertex="1" parent="W81J2JQ0MfVwSuoms129-42">
          <mxGeometry x="130" y="7.5" width="17.69" height="22.5" as="geometry" />
        </mxCell>
        <mxCell id="W81J2JQ0MfVwSuoms129-46" value="" style="group" vertex="1" connectable="0" parent="1">
          <mxGeometry x="400" y="30" width="190" height="260" as="geometry" />
        </mxCell>
        <mxCell id="W81J2JQ0MfVwSuoms129-47" value="&amp;lt;&amp;lt;device&amp;gt;&amp;gt; &lt;b&gt;artpc17 (master)&lt;/b&gt;" style="verticalAlign=top;align=center;shape=cube;size=10;direction=south;html=1;boundedLbl=1;spacingLeft=5;whiteSpace=wrap;" vertex="1" parent="W81J2JQ0MfVwSuoms129-46">
          <mxGeometry width="190" height="260" as="geometry" />
        </mxCell>
        <mxCell id="W81J2JQ0MfVwSuoms129-48" value="«component»&lt;br&gt;&lt;b&gt;System Configuration&lt;/b&gt;" style="html=1;dropTarget=0;whiteSpace=wrap;" vertex="1" parent="W81J2JQ0MfVwSuoms129-46">
          <mxGeometry x="10" y="185" width="160" height="65" as="geometry" />
        </mxCell>
        <mxCell id="W81J2JQ0MfVwSuoms129-49" value="" style="shape=module;jettyWidth=8;jettyHeight=4;" vertex="1" parent="W81J2JQ0MfVwSuoms129-48">
          <mxGeometry x="1" width="20" height="20" relative="1" as="geometry">
            <mxPoint x="-27" y="7" as="offset" />
          </mxGeometry>
        </mxCell>
        <mxCell id="W81J2JQ0MfVwSuoms129-50" value="«component»&lt;br&gt;&lt;b&gt;Kubernetes Configuration&lt;/b&gt;" style="html=1;dropTarget=0;whiteSpace=wrap;" vertex="1" parent="W81J2JQ0MfVwSuoms129-46">
          <mxGeometry x="10" y="110" width="160" height="65" as="geometry" />
        </mxCell>
        <mxCell id="W81J2JQ0MfVwSuoms129-51" value="" style="shape=module;jettyWidth=8;jettyHeight=4;" vertex="1" parent="W81J2JQ0MfVwSuoms129-50">
          <mxGeometry x="1" width="20" height="20" relative="1" as="geometry">
            <mxPoint x="-27" y="7" as="offset" />
          </mxGeometry>
        </mxCell>
        <mxCell id="W81J2JQ0MfVwSuoms129-52" value="" style="group" vertex="1" connectable="0" parent="W81J2JQ0MfVwSuoms129-46">
          <mxGeometry x="10" y="40" width="160" height="60" as="geometry" />
        </mxCell>
        <mxCell id="W81J2JQ0MfVwSuoms129-53" value="«artefact»&lt;br&gt;&lt;b&gt;Kubernetes&lt;/b&gt;" style="html=1;dropTarget=0;whiteSpace=wrap;" vertex="1" parent="W81J2JQ0MfVwSuoms129-52">
          <mxGeometry width="160" height="60" as="geometry" />
        </mxCell>
        <mxCell id="W81J2JQ0MfVwSuoms129-54" value="" style="shape=note2;boundedLbl=1;whiteSpace=wrap;html=1;size=6;verticalAlign=top;align=left;spacingLeft=5;" vertex="1" parent="W81J2JQ0MfVwSuoms129-52">
          <mxGeometry x="130" y="7.5" width="17.69" height="22.5" as="geometry" />
        </mxCell>
        <mxCell id="W81J2JQ0MfVwSuoms129-56" value="&amp;lt;&amp;lt;device&amp;gt;&amp;gt; &lt;b&gt;Ansible Client&lt;/b&gt;" style="verticalAlign=top;align=center;shape=cube;size=10;direction=south;html=1;boundedLbl=1;spacingLeft=5;whiteSpace=wrap;" vertex="1" parent="1">
          <mxGeometry x="110" y="210" width="190" height="200" as="geometry" />
        </mxCell>
        <mxCell id="W81J2JQ0MfVwSuoms129-65" value="«component»&lt;br&gt;&lt;b&gt;Playbooks&lt;/b&gt;" style="html=1;dropTarget=0;whiteSpace=wrap;" vertex="1" parent="1">
          <mxGeometry x="140" y="250" width="130" height="60" as="geometry" />
        </mxCell>
        <mxCell id="W81J2JQ0MfVwSuoms129-66" value="" style="shape=module;jettyWidth=8;jettyHeight=4;" vertex="1" parent="W81J2JQ0MfVwSuoms129-65">
          <mxGeometry x="1" width="20" height="20" relative="1" as="geometry">
            <mxPoint x="-27" y="7" as="offset" />
          </mxGeometry>
        </mxCell>
        <mxCell id="W81J2JQ0MfVwSuoms129-67" value="" style="group" vertex="1" connectable="0" parent="1">
          <mxGeometry x="145" y="325" width="110" height="70" as="geometry" />
        </mxCell>
        <mxCell id="W81J2JQ0MfVwSuoms129-68" value="«artefact»&lt;br&gt;&lt;b&gt;Ansible&lt;/b&gt;" style="html=1;dropTarget=0;whiteSpace=wrap;" vertex="1" parent="W81J2JQ0MfVwSuoms129-67">
          <mxGeometry width="110" height="70" as="geometry" />
        </mxCell>
        <mxCell id="W81J2JQ0MfVwSuoms129-69" value="" style="shape=note2;boundedLbl=1;whiteSpace=wrap;html=1;size=6;verticalAlign=top;align=left;spacingLeft=5;" vertex="1" parent="W81J2JQ0MfVwSuoms129-67">
          <mxGeometry x="88.84615384615384" y="8.75" width="12.692307692307692" height="17.5" as="geometry" />
        </mxCell>
      </root>
    </mxGraphModel>
  </diagram>
</mxfile>
